<svg width="15" height="15" viewBox="0 0 15 15" fill="none" xmlns="http://www.w3.org/2000/svg">
<path d="M11.2961 9.63913C10.9192 9.23546 10.2864 9.21379 9.88273 9.59072C9.47907 9.96765 9.4574 10.6004 9.83433 11.0041L11.2961 9.63913ZM13.2691 14.6825C13.646 15.0862 14.2788 15.1078 14.6825 14.7309C15.0862 14.354 15.1078 13.7212 14.7309 13.3175L13.2691 14.6825ZM9.60465 3.39718C11.3247 5.23917 11.2772 8.19061 9.50227 9.97171L10.9189 11.3835C13.4553 8.83833 13.5198 4.65954 11.0664 2.0322L9.60465 3.39718ZM9.50227 9.97171C7.74721 11.7328 4.96094 11.6871 3.26002 9.86558L1.79823 11.2306C4.27066 13.8783 8.36261 13.9486 10.9189 11.3835L9.50227 9.97171ZM3.26002 9.86558C1.54002 8.02358 1.58744 5.07214 3.36241 3.29104L1.94576 1.87927C-0.590636 4.42442 -0.655105 8.60322 1.79823 11.2306L3.26002 9.86558ZM3.36241 3.29104C5.11747 1.52992 7.90373 1.57563 9.60465 3.39718L11.0664 2.0322C8.59402 -0.615581 4.50206 -0.685864 1.94576 1.87927L3.36241 3.29104ZM9.83433 11.0041L13.2691 14.6825L14.7309 13.3175L11.2961 9.63913L9.83433 11.0041Z" fill="#F5A637"/>
</svg>
